<mxfile host="app.diagrams.net" modified="2022-11-15T23:03:09.165Z" agent="5.0 (Macintosh; Intel Mac OS X 10_15_7) AppleWebKit/537.36 (KHTML, like Gecko) Chrome/106.0.0.0 Safari/537.36" etag="cZ0uWZDtLZmzpPdcm8yi" version="20.5.3" type="github">
  <diagram id="siDrjC4Dq89LEcLM6-JM" name="第 1 页">
    <mxGraphModel dx="1554" dy="866" grid="1" gridSize="10" guides="1" tooltips="1" connect="1" arrows="1" fold="1" page="1" pageScale="1" pageWidth="827" pageHeight="1169" math="0" shadow="0">
      <root>
        <mxCell id="0" />
        <mxCell id="1" parent="0" />
        <mxCell id="nwqf5EKaVYbrTuWkvq7Z-25" value="" style="rounded=1;whiteSpace=wrap;html=1;" vertex="1" parent="1">
          <mxGeometry x="140" y="510" width="580" height="340" as="geometry" />
        </mxCell>
        <mxCell id="nwqf5EKaVYbrTuWkvq7Z-1" value="模拟器" style="rounded=1;whiteSpace=wrap;html=1;" vertex="1" parent="1">
          <mxGeometry x="140" y="170" width="120" height="60" as="geometry" />
        </mxCell>
        <mxCell id="nwqf5EKaVYbrTuWkvq7Z-2" value="" style="shape=flexArrow;endArrow=classic;html=1;rounded=0;" edge="1" parent="1">
          <mxGeometry width="50" height="50" relative="1" as="geometry">
            <mxPoint x="280" y="200" as="sourcePoint" />
            <mxPoint x="360" y="200" as="targetPoint" />
          </mxGeometry>
        </mxCell>
        <mxCell id="nwqf5EKaVYbrTuWkvq7Z-3" value="拓扑数据" style="text;html=1;align=center;verticalAlign=middle;resizable=0;points=[];autosize=1;strokeColor=none;fillColor=none;" vertex="1" parent="1">
          <mxGeometry x="280" y="150" width="70" height="30" as="geometry" />
        </mxCell>
        <mxCell id="nwqf5EKaVYbrTuWkvq7Z-4" value="原位系统" style="rounded=1;whiteSpace=wrap;html=1;" vertex="1" parent="1">
          <mxGeometry x="380" y="170" width="120" height="60" as="geometry" />
        </mxCell>
        <mxCell id="nwqf5EKaVYbrTuWkvq7Z-5" value="" style="shape=flexArrow;endArrow=classic;html=1;rounded=0;" edge="1" parent="1">
          <mxGeometry width="50" height="50" relative="1" as="geometry">
            <mxPoint x="520" y="199.5" as="sourcePoint" />
            <mxPoint x="610" y="199.5" as="targetPoint" />
          </mxGeometry>
        </mxCell>
        <mxCell id="nwqf5EKaVYbrTuWkvq7Z-7" value="结果" style="rounded=1;whiteSpace=wrap;html=1;" vertex="1" parent="1">
          <mxGeometry x="650" y="170" width="120" height="60" as="geometry" />
        </mxCell>
        <mxCell id="nwqf5EKaVYbrTuWkvq7Z-8" value="" style="shape=flexArrow;endArrow=classic;html=1;rounded=0;" edge="1" parent="1">
          <mxGeometry width="50" height="50" relative="1" as="geometry">
            <mxPoint x="430" y="240" as="sourcePoint" />
            <mxPoint x="430" y="300" as="targetPoint" />
          </mxGeometry>
        </mxCell>
        <mxCell id="nwqf5EKaVYbrTuWkvq7Z-9" value="监控" style="text;html=1;align=center;verticalAlign=middle;resizable=0;points=[];autosize=1;strokeColor=none;fillColor=none;" vertex="1" parent="1">
          <mxGeometry x="445" y="255" width="50" height="30" as="geometry" />
        </mxCell>
        <mxCell id="nwqf5EKaVYbrTuWkvq7Z-20" style="edgeStyle=orthogonalEdgeStyle;rounded=0;orthogonalLoop=1;jettySize=auto;html=1;entryX=0.344;entryY=-0.031;entryDx=0;entryDy=0;entryPerimeter=0;" edge="1" parent="1" source="nwqf5EKaVYbrTuWkvq7Z-10" target="nwqf5EKaVYbrTuWkvq7Z-19">
          <mxGeometry relative="1" as="geometry" />
        </mxCell>
        <mxCell id="nwqf5EKaVYbrTuWkvq7Z-10" value="数据流图数据" style="shape=cylinder3;whiteSpace=wrap;html=1;boundedLbl=1;backgroundOutline=1;size=15;" vertex="1" parent="1">
          <mxGeometry x="400" y="310" width="60" height="80" as="geometry" />
        </mxCell>
        <mxCell id="nwqf5EKaVYbrTuWkvq7Z-11" value="中间数据摘要" style="rounded=1;whiteSpace=wrap;html=1;" vertex="1" parent="1">
          <mxGeometry x="550" y="285" width="120" height="60" as="geometry" />
        </mxCell>
        <mxCell id="nwqf5EKaVYbrTuWkvq7Z-12" value="配置信息" style="rounded=1;whiteSpace=wrap;html=1;" vertex="1" parent="1">
          <mxGeometry x="550" y="360" width="120" height="60" as="geometry" />
        </mxCell>
        <mxCell id="nwqf5EKaVYbrTuWkvq7Z-13" value="数据流向信息" style="rounded=1;whiteSpace=wrap;html=1;" vertex="1" parent="1">
          <mxGeometry x="550" y="440" width="120" height="60" as="geometry" />
        </mxCell>
        <mxCell id="nwqf5EKaVYbrTuWkvq7Z-14" value="" style="endArrow=none;html=1;rounded=0;entryX=0;entryY=0;entryDx=0;entryDy=0;exitX=1;exitY=0;exitDx=0;exitDy=15;exitPerimeter=0;" edge="1" parent="1" source="nwqf5EKaVYbrTuWkvq7Z-10" target="nwqf5EKaVYbrTuWkvq7Z-11">
          <mxGeometry width="50" height="50" relative="1" as="geometry">
            <mxPoint x="470" y="350" as="sourcePoint" />
            <mxPoint x="520" y="300" as="targetPoint" />
          </mxGeometry>
        </mxCell>
        <mxCell id="nwqf5EKaVYbrTuWkvq7Z-15" value="" style="endArrow=none;html=1;rounded=0;entryX=0;entryY=1;entryDx=0;entryDy=0;exitX=1;exitY=1;exitDx=0;exitDy=-15;exitPerimeter=0;" edge="1" parent="1" source="nwqf5EKaVYbrTuWkvq7Z-10" target="nwqf5EKaVYbrTuWkvq7Z-13">
          <mxGeometry width="50" height="50" relative="1" as="geometry">
            <mxPoint x="470" y="385" as="sourcePoint" />
            <mxPoint x="560" y="345" as="targetPoint" />
          </mxGeometry>
        </mxCell>
        <mxCell id="nwqf5EKaVYbrTuWkvq7Z-16" value="" style="shape=flexArrow;endArrow=classic;html=1;rounded=0;" edge="1" parent="1">
          <mxGeometry width="50" height="50" relative="1" as="geometry">
            <mxPoint x="690" y="470" as="sourcePoint" />
            <mxPoint x="770" y="470" as="targetPoint" />
          </mxGeometry>
        </mxCell>
        <mxCell id="nwqf5EKaVYbrTuWkvq7Z-17" value="数据流向图" style="rounded=1;whiteSpace=wrap;html=1;" vertex="1" parent="1">
          <mxGeometry x="800" y="440" width="120" height="60" as="geometry" />
        </mxCell>
        <mxCell id="nwqf5EKaVYbrTuWkvq7Z-18" value="graphviz" style="text;whiteSpace=wrap;html=1;" vertex="1" parent="1">
          <mxGeometry x="700" y="430" width="80" height="40" as="geometry" />
        </mxCell>
        <mxCell id="nwqf5EKaVYbrTuWkvq7Z-19" value="" style="aspect=fixed;perimeter=ellipsePerimeter;html=1;align=center;shadow=0;dashed=0;spacingTop=3;image;image=img/lib/active_directory/web_server.svg;" vertex="1" parent="1">
          <mxGeometry x="408" y="510" width="64" height="80" as="geometry" />
        </mxCell>
        <mxCell id="nwqf5EKaVYbrTuWkvq7Z-21" value="数据流图可视化模块" style="rounded=1;whiteSpace=wrap;html=1;" vertex="1" parent="1">
          <mxGeometry x="255" y="660" width="120" height="60" as="geometry" />
        </mxCell>
        <mxCell id="nwqf5EKaVYbrTuWkvq7Z-22" value="节点列表模块" style="rounded=1;whiteSpace=wrap;html=1;" vertex="1" parent="1">
          <mxGeometry x="472" y="660" width="120" height="60" as="geometry" />
        </mxCell>
        <mxCell id="nwqf5EKaVYbrTuWkvq7Z-23" value="数据加载模块" style="rounded=1;whiteSpace=wrap;html=1;" vertex="1" parent="1">
          <mxGeometry x="255" y="760" width="120" height="60" as="geometry" />
        </mxCell>
        <mxCell id="nwqf5EKaVYbrTuWkvq7Z-24" value="数据重放模块" style="rounded=1;whiteSpace=wrap;html=1;" vertex="1" parent="1">
          <mxGeometry x="472" y="760" width="120" height="60" as="geometry" />
        </mxCell>
        <mxCell id="nwqf5EKaVYbrTuWkvq7Z-26" value="数据流图可视化系统" style="text;html=1;strokeColor=none;fillColor=none;align=center;verticalAlign=middle;whiteSpace=wrap;rounded=0;" vertex="1" parent="1">
          <mxGeometry x="610" y="540" width="90" height="30" as="geometry" />
        </mxCell>
      </root>
    </mxGraphModel>
  </diagram>
</mxfile>
